# xmcd
#
# Track frame offsets: 
#        150
#        17083
#        28145
#        42855
#        61644
#        73259
#        90389
#        106955
#        130285
#        142402
#        156735
#        175102
#
# Disc length: 2488 seconds
#
# Revision: 1
# Processed by: cddbd v1.5.2PL0 Copyright (c) Steve Scherf et al.
# Submitted via: ExactAudioCopy v0.95b4
#
DISCID=aa09b60c
DTITLE=Various Artisits - Ultimate Country Classics Volume 4 [CD3]
DYEAR=2003
DGENRE=Country
TTITLE0=Johnny Cash - (Ghost Riders) In The Sky
TTITLE1=Eddy Raven - She's Playing Hard To Forget
TTITLE2=The Forester Sisters - I Fell In Love Again Last Night
TTITLE3=Michael Martin Murphey And Holly Dunn - A Face In The Crowd
TTITLE4=Mel Tillis - Southern Rains
TTITLE5=Southern Pacific - New Shade Of Blue
TTITLE6=Gary Morris - I'll Never Stop Loving You
TTITLE7=Kenny Rogers - I Prefer The Moonlight
TTITLE8=Holly Dunn - Are You Ever Gonna Love Me
TTITLE9=Donna Fargo - Do I Love You (Yes In Every Way)
TTITLE10=K. T. Oslin - Do Ya
TTITLE11=Crystal Gayle - Don't It Make My Brown Eyes Blue
EXTD=
EXTT0=
EXTT1=
EXTT2=
EXTT3=
EXTT4=
EXTT5=
EXTT6=
EXTT7=
EXTT8=
EXTT9=
EXTT10=
EXTT11=
PLAYORDER=
